<svg xmlns="http://www.w3.org/2000/svg" viewBox="0 0 16 16" enable-background="new 0 0 16 16"><path fill="#373D44" d="M254 578.8c-4.3 0-7.7 3.5-7.7 7.7 0 4.3 3.5 7.7 7.7 7.7 4.3 0 7.7-3.5 7.7-7.7s-3.4-7.7-7.7-7.7zm4.3 8.7h-3.3v3.3h-2v-3.3h-3.3v-2h3.3v-3.3h2v3.3h3.3v2z"/><g fill="#373D44"><path d="M3.3 16h9.6l.9-10.5h-11.4l.9 10.5zm6.6-8.1c0-.3.2-.5.5-.5s.5.2.5.5v5.6c0 .3-.2.5-.5.5s-.5-.2-.5-.5v-5.6zm-2.3 0c0-.3.2-.5.5-.5s.5.2.5.5v5.6c0 .3-.2.5-.5.5s-.5-.2-.5-.5v-5.6zm-2.3 0c0-.3.2-.5.5-.5s.5.2.5.5v5.6c0 .3-.2.5-.5.5s-.5-.2-.5-.5v-5.6zM14.2 2h-3v-.4c0-.9-.7-1.6-1.6-1.6h-3.1c-.9 0-1.6.7-1.6 1.6v.3h-3c-.4.1-.8.4-.8.9v1.9h13.9v-1.9c0-.5-.3-.8-.8-.8zm-4.1 0h-4.1v-.3c0-.3.2-.5.5-.5h3.1c.3 0 .5.2.5.5v.3z"/></g></svg>