<?xml version="1.0" encoding="utf-8"?>
<!-- Generator: Adobe Illustrator 17.1.0, SVG Export Plug-In . SVG Version: 6.00 Build 0)  -->
<!DOCTYPE svg PUBLIC "-//W3C//DTD SVG 1.1//EN" "http://www.w3.org/Graphics/SVG/1.1/DTD/svg11.dtd">
<svg version="1.1" id="Layer_1" xmlns="http://www.w3.org/2000/svg" xmlns:xlink="http://www.w3.org/1999/xlink" x="0px" y="0px"
	 viewBox="0 0 500 500" enable-background="new 0 0 500 500" xml:space="preserve">
<path fill="#FFFFFF" d="M134.4,194.8c11.5,11.5,17.7,40.6,17.7,43.8c0,0,12.5,0,49-36.5l39.6-52.1c-4.2-1-33.3-8.3-45.8-19.8
	C179.2,114.6,172.9,93.8,175,74L107.3,6.3c-8.3-8.3-21.9-8.3-29.2,0L6.2,78.1c-8.3,8.3-8.3,21.9,0,29.2L74,175
	C94.8,171.9,117.7,178.1,134.4,194.8L134.4,194.8z"/>
<polygon fill="#FFFFFF" points="446.9,410.4 322.9,287.5 302.1,308.3 426,431.3 429.2,447.9 476,481.3 496.9,460.4 463.5,413.5 "/>
<path fill="#FFFFFF" d="M342.7,238.5c10.4,3.1,21.9,5.2,33.3,5.2c34.4,0,66.7-13.5,89.6-37.5c18.8-18.8,37.5-67.7,33.3-96.9
	l-37.5,36.5c-7.3,7.3-16.7,11.5-27.1,11.5c-10.4,0-20.8-4.2-28.1-11.5l-51-52.1c-11.5-11.5-14.6-32.3,5.2-51L401,2.1
	c-31.2,2.1-70.8,9.4-100,37.5c-32.3,31.2-44.8,80.2-33.3,122.9l3.1,10.4L38.5,389.6c-19.8,19.8-17.7,52.1,1,71.9
	c19.8,19.8,52.1,20.8,71.9,2.1l221.9-227.1L342.7,238.5L342.7,238.5z M92.7,428.1c-1,9.4-10.4,15.6-19.8,14.6s-15.6-9.4-14.6-18.8
	c1-9.4,9.4-15.6,18.8-14.6C87.5,409.4,93.8,418.8,92.7,428.1z"/>
</svg>
