<svg xmlns="http://www.w3.org/2000/svg" viewBox="0 0 48 48" enable-background="new 0 0 48 48"><path fill="#849899" d="M12.9 18.7c1.1 1.1 1.7 3.9 1.7 4.2 0 0 1.2 0 4.7-3.5l3.8-5c-.4-.1-3.2-.8-4.4-1.9-1.5-1.5-2.1-3.5-1.9-5.4l-6.5-6.5c-.8-.8-2.1-.8-2.8 0l-6.9 6.9c-.8.8-.8 2.1 0 2.8l6.5 6.5c2-.3 4.2.3 5.8 1.9z"/><polygon fill="#849899" points="42.9,39.4 31,27.6 29,29.6 40.9,41.4 41.2,43 45.7,46.2 47.7,44.2 44.5,39.7"/><path fill="#3D4344" d="M32.9 22.9c1 .3 2.1.5 3.2.5 3.3 0 6.4-1.3 8.6-3.6 1.8-1.8 3.6-6.5 3.2-9.3l-3.6 3.5c-.7.7-1.6 1.1-2.6 1.1s-2-.4-2.7-1.1l-4.9-5c-1.1-1.1-1.4-3.1.5-4.9l3.9-3.9c-3 .2-6.8.9-9.6 3.6-3.1 3-4.3 7.7-3.2 11.8l.3 1-22.3 20.8c-1.9 1.9-1.7 5 .1 6.9 1.9 1.9 5 2 6.9.2l21.3-21.8.9.2zm-24 18.2c-.1.9-1 1.5-1.9 1.4s-1.5-.9-1.4-1.8c.1-.9.9-1.5 1.8-1.4 1 0 1.6.9 1.5 1.8z"/></svg>