<?xml version="1.0" encoding="utf-8"?>
<!-- Generator: Adobe Illustrator 17.1.0, SVG Export Plug-In . SVG Version: 6.00 Build 0)  -->
<!DOCTYPE svg PUBLIC "-//W3C//DTD SVG 1.1//EN" "http://www.w3.org/Graphics/SVG/1.1/DTD/svg11.dtd">
<svg version="1.1" id="Layer_1" xmlns="http://www.w3.org/2000/svg" xmlns:xlink="http://www.w3.org/1999/xlink" x="0px" y="0px"
	 viewBox="0 0 500 500" enable-background="new 0 0 500 500" xml:space="preserve">
<polygon fill="#849899" points="3407.3,4461.5 3286.5,4057.3 3165.6,4455.2 3034.4,3845.8 2903.1,4461.5 2810.4,4461.5 
	2810.4,4535.4 2965.6,4535.4 3034.4,4210.4 3104.2,4535.4 3220.8,4535.4 3286.5,4320.8 3351,4535.4 3500,4535.4 3500,4461.5 "/>
<ellipse transform="matrix(-0.9997 -2.399325e-02 2.399325e-02 -0.9997 721.6075 300.4754)" fill="#FFFFFF" cx="362.6" cy="145.9" rx="67.7" ry="77.1"/>
<ellipse fill="#FFFFFF" cx="134.4" cy="179.2" rx="67.7" ry="82.3"/>
<path fill="#FFFFFF" d="M471.9,241.7C507.3,271.9,499,398,499,398H311.5c-1-30.2-1-77.1-22.9-122.9c0,0-26-33.3-44.8-35.4
	c2.1-4.2,11.5-8.3,15.6-10.4c0,0,29.2-11.5,36.5-8.3c6.2,3.1,9.4,0,19.8,10.4c9.4,10.4,32.3,25,60.4,18.7s29.2-21.9,37.5-22.9
	C411.5,227.1,446.9,208.3,471.9,241.7L471.9,241.7z"/>
<path fill="#FFFFFF" d="M209.4,257.3c19.8,1,34.4,22.9,34.4,22.9c25,22.9,30.2,77.1,31.2,112.5V425H0c0,0-1-10.4,6.3-88.5
	c19.8-104.2,82.3-70.8,82.3-70.8c12.5,10.4,29.2,30.2,60.4,22.9s35.4-27.1,44.8-27.1C192.7,260.4,195.8,256.2,209.4,257.3z"/>
</svg>
