<svg xmlns="http://www.w3.org/2000/svg" viewBox="0 0 48 48" enable-background="new 0 0 48 48"><polygon fill="#849899" points="327.1,428.3 315.5,389.5 303.9,427.7 291.3,369.2 278.7,428.3 269.8,428.3 269.8,435.4 284.7,435.4 291.3,404.2 298,435.4 309.2,435.4 315.5,414.8 321.7,435.4 336,435.4 336,428.3"/><ellipse transform="matrix(1 .024 -.024 1 .519 -.829)" fill="#849899" cx="34.8" cy="21.2" rx="6.5" ry="7.4"/><ellipse fill="#3D4344" cx="12.9" cy="24.4" rx="6.5" ry="7.9"/><path fill="#849899" d="M45.3 30.4c3.4 2.9 2.6 15 2.6 15h-18c-.1-2.9-.1-7.4-2.2-11.8 0 0-2.5-3.2-4.3-3.4.2-.4 1.1-.8 1.5-1 0 0 2.8-1.1 3.5-.8.6.3.9 0 1.9 1 .9 1 3.1 2.4 5.8 1.8 2.7-.6 2.8-2.1 3.6-2.2-.2 0 3.2-1.8 5.6 1.4z"/><path fill="#3D4344" d="M20.1 31.9c1.9.1 3.3 2.2 3.3 2.2 2.4 2.2 2.9 7.4 3 10.8v3.1h-26.4s-.1-1 .6-8.5c1.9-10 7.9-6.8 7.9-6.8 1.2 1 2.8 2.9 5.8 2.2s3.4-2.6 4.3-2.6c-.1-.1.2-.5 1.5-.4z"/></svg>