<svg xmlns="http://www.w3.org/2000/svg" viewBox="0 0 221.9 61.4" enable-background="new 0 0 221.9 61.4"><g fill="#08698D"><path d="M95.1 19.5h-9v32.6h-7.5v-32.6h-8.8v-5.8h25.3v5.8zM105.1 36.7v15.4h-7.4v-38.4h11.5c3.8 0 6.8 1 9 3s3.3 4.8 3.3 8.3c0 2-.5 3.7-1.4 5.2s-2.3 2.6-4 3.5c2 .7 3.4 1.8 4.3 3.3.9 1.5 1.3 3.5 1.3 5.8v2.8c0 1.1.1 2.2.4 3.4.2 1.2.7 2 1.3 2.6v.6h-7.7c-.6-.6-1-1.5-1.2-2.8-.2-1.3-.3-2.5-.3-3.8v-2.7c0-2-.4-3.5-1.2-4.5-.8-1.1-2-1.6-3.5-1.6h-4.4zm0-5.8h4c1.6 0 2.8-.5 3.7-1.4.8-1 1.3-2.3 1.3-4.1 0-1.8-.4-3.2-1.2-4.3-.8-1.1-2-1.6-3.6-1.6h-4.1v11.4zM143.5 43.8h-9.6l-2.2 8.3h-7.8l10.9-38.4h7.7l10.9 38.4h-7.8l-2.1-8.3zm-8.1-5.9h6.5l-3.2-12.2h-.2l-3.1 12.2zM167.4 27.3h.2l5.5-13.6h8.6l-9.5 19 10.2 19.4h-9l-5.6-13.9h-.2l-5.6 13.9h-8.6l9.8-19.4-9.6-19h8.6l5.2 13.6zM192.3 52.1h-7.4v-38.4h7.4v38.4zM214.5 42.1c0-1.5-.4-2.7-1.2-3.6-.8-.9-2.2-1.8-4.2-2.6-3.9-1.4-6.9-3-8.9-4.7-2-1.8-3-4.2-3-7.4 0-3.1 1.1-5.7 3.4-7.7s5.2-3 8.7-3c3.7 0 6.7 1.1 9 3.2s3.4 4.9 3.3 8.5l-.1.2h-7.2c0-2-.4-3.5-1.3-4.5s-2.2-1.5-3.8-1.5c-1.4 0-2.5.5-3.3 1.4-.8.9-1.2 2.1-1.2 3.5 0 1.3.4 2.4 1.3 3.2s2.4 1.8 4.6 2.8c3.7 1.2 6.5 2.8 8.4 4.7 1.9 1.9 2.9 4.4 2.9 7.6 0 3.3-1.1 5.9-3.3 7.8-2.2 1.9-5.2 2.8-8.9 2.8-3.6 0-6.8-1-9.3-3s-3.8-5.1-3.7-9.3l.1-.2h7.3c0 2.4.5 4.1 1.5 5.2s2.4 1.6 4.3 1.6c1.6 0 2.8-.4 3.6-1.3.6-1 1-2.2 1-3.7z"/></g><polyline fill="#0E8CC6" points="63.2,45.7 47.6,61.4 32,45.7"/><polyline fill="#34BDEE" points="32,45.7 47.6,30.1 63.3,45.7"/><polyline fill="#0E8CC6" points="31.2,45.7 15.6,61.4 0,45.7"/><polyline fill="#34BDEE" points="0,45.7 15.6,30.1 31.3,45.7"/><polyline fill="#7ED2F1" points="16.4,15.6 31.9,0 47.5,15.6"/><polyline fill="#34BDEE" points="47.2,15.6 31.5,31.3 15.9,15.6"/></svg>