<?xml version="1.0" encoding="UTF-8" standalone="no"?>
<svg width="16px" height="16px" viewBox="0 0 16 16" version="1.1" xmlns="http://www.w3.org/2000/svg" xmlns:xlink="http://www.w3.org/1999/xlink" xmlns:sketch="http://www.bohemiancoding.com/sketch/ns">
    <!-- Generator: Sketch 3.4.2 (15857) - http://www.bohemiancoding.com/sketch -->
    <title>add</title>
    <desc>Created with Sketch.</desc>
    <defs></defs>
    <g id="Page-1" stroke="none" stroke-width="1" fill="none" fill-rule="evenodd" sketch:type="MSPage">
        <g id="add" sketch:type="MSLayerGroup" fill="#000000">
            <g id="Layer_1" sketch:type="MSShapeGroup">
                <g id="Group">
                    <g id="add">
                        <path d="M8,0.0238297872 C3.56765957,0.0238297872 0.0238297872,3.56765957 0.0238297872,8 C0.0238297872,12.4323404 3.56765957,15.9761702 8,15.9761702 C12.4323404,15.9761702 15.9761702,12.4323404 15.9761702,8 C15.9761702,3.56765957 12.4323404,0.0238297872 8,0.0238297872 L8,0.0238297872 L8,0.0238297872 Z M12.7251064,9.1812766 L9.1812766,9.1812766 L9.1812766,12.7251064 L6.8187234,12.7251064 L6.8187234,9.1812766 L3.27489362,9.1812766 L3.27489362,6.8187234 L6.8187234,6.8187234 L6.8187234,3.27489362 L9.1812766,3.27489362 L9.1812766,6.8187234 L12.7251064,6.8187234 L12.7251064,9.1812766 L12.7251064,9.1812766 L12.7251064,9.1812766 Z"></path>
                    </g>
                </g>
            </g>
        </g>
    </g>
</svg>