<?xml version="1.0" encoding="UTF-8" standalone="no"?>
<svg width="16px" height="16px" viewBox="0 0 16 16" version="1.1" xmlns="http://www.w3.org/2000/svg" xmlns:xlink="http://www.w3.org/1999/xlink" xmlns:sketch="http://www.bohemiancoding.com/sketch/ns">
    <!-- Generator: Sketch 3.4.2 (15857) - http://www.bohemiancoding.com/sketch -->
    <title>bold</title>
    <desc>Created with Sketch.</desc>
    <defs></defs>
    <g id="Page-1" stroke="none" stroke-width="1" fill="none" fill-rule="evenodd" sketch:type="MSPage">
        <g id="bold" sketch:type="MSLayerGroup" transform="translate(1.000000, 0.000000)" fill="#000000">
            <g id="Layer_1" sketch:type="MSShapeGroup">
                <path d="M2.07909605,3.98029557 C2.07909605,1.55665025 2.03193319,1.31625616 1.02579219,1.17438424 L0.381233112,1.07980296 C0.165070007,0.957635468 0.117907148,0.240394089 0.475558831,0.216748768 C2.29525915,0.0985221675 4.04028494,-1.80646458e-16 6.43380005,-1.80646458e-16 C8.7290592,-1.80646458e-16 10.2618521,0.264039409 11.315156,0.886699507 C12.3448784,1.50935961 12.9658561,2.5182266 12.9658561,3.93300493 C12.9658561,5.94679803 11.2679931,6.73891626 10.5251781,6.9320197 C10.2854336,6.97931034 10.045689,7.07783251 10.045689,7.19605911 C10.045689,7.26699507 10.1635962,7.34187192 10.3797593,7.38916256 C12.2702039,7.79901478 13.8737411,9.04433498 13.8973225,11.3694581 C13.920904,13.5763547 12.6042741,14.8729064 11.0989929,15.4009852 C9.59371162,15.929064 7.79759273,16 6.33947433,16 C5.47875215,16 4.57086711,15.9054187 3.87521493,15.9054187 C2.70400393,15.9054187 1.52886269,15.929064 0.169000246,15.9763547 C-0.0235814296,15.8344828 -0.0235814296,15.2078818 0.169000246,15.1369458 L0.860722181,14.991133 C1.93760747,14.7743842 2.07909605,14.608867 2.07909605,12.4492611 L2.07909605,3.98029557 L2.07909605,3.98029557 L2.07909605,3.98029557 Z M5.38049619,6.30935961 C5.38049619,6.9320197 5.40407762,6.98325123 6.64996315,6.98325123 C8.70547777,6.98325123 9.47187423,5.66305419 9.47187423,4.22463054 C9.47187423,2.13990148 8.17882584,1.10738916 6.52812577,1.10738916 C5.40407762,1.10738916 5.38049619,1.30049261 5.38049619,2.35270936 L5.38049619,6.30935961 L5.38049619,6.30935961 Z M5.38049619,11.8502463 C5.38049619,13.7221675 5.62024073,14.8965517 7.48710391,14.8965517 C9.25571113,14.8965517 10.1911078,13.529064 10.1911078,11.5862069 C10.1911078,9.49753695 8.9963154,8.03546798 6.69712601,8.03546798 C5.38049619,8.03546798 5.38049619,8.0591133 5.38049619,9.02068966 L5.38049619,11.8502463 L5.38049619,11.8502463 Z" id="Shape"></path>
            </g>
        </g>
    </g>
</svg>