<?xml version="1.0" encoding="UTF-8" standalone="no"?>
<svg width="16px" height="16px" viewBox="0 0 16 16" version="1.1" xmlns="http://www.w3.org/2000/svg" xmlns:xlink="http://www.w3.org/1999/xlink" xmlns:sketch="http://www.bohemiancoding.com/sketch/ns">
    <!-- Generator: Sketch 3.4.3 (16044) - http://www.bohemiancoding.com/sketch -->
    <title>cloud-download</title>
    <desc>Created with Sketch.</desc>
    <defs></defs>
    <g id="Page-1" stroke="none" stroke-width="1" fill="none" fill-rule="evenodd" sketch:type="MSPage">
        <path d="M8,0 C5.5,0 3.494,1.794 3.094,4.094 C1.294,4.494 0,6.1 0,8 C0,10.2 1.8,12 4,12 L6,12 L6,11 C6,9.9 6.9,9 8,9 C9.1,9 10,9.9 10,11 L10,12 L13,12 C14.7,12 16,10.7 16,9 C16,7.3 14.7,6 13,6 L13,5 C13,2.2 10.8,0 8,0 L8,0 Z M7.906,9.969 L7.906,9.969 C7.86371,9.976637 7.821957,9.986991 7.781,10 L7.781,10 C7.315449,10.104345 6.98845,10.523038 7,11 L7,13 L5,13 L8,16 L11,13 L9,13 L9,11 L9,11 C9.019599,10.448064 8.588055,9.984742 8.036118,9.965142 C7.992708,9.963601 7.949243,9.964889 7.906001,9.969 L7.906,9.969 Z" fill="#000000" sketch:type="MSShapeGroup"></path>
    </g>
</svg>