<?xml version="1.0" encoding="UTF-8" standalone="no"?>
<svg width="16px" height="16px" viewBox="0 0 16 16" version="1.1" xmlns="http://www.w3.org/2000/svg" xmlns:xlink="http://www.w3.org/1999/xlink" xmlns:sketch="http://www.bohemiancoding.com/sketch/ns">
    <!-- Generator: Sketch 3.4.2 (15855) - http://www.bohemiancoding.com/sketch -->
    <title>help</title>
    <desc>Created with Sketch.</desc>
    <defs></defs>
    <g id="UI-guide-v2" stroke="none" stroke-width="1" fill="none" fill-rule="evenodd" sketch:type="MSPage">
        <g id="ui-06-icons" sketch:type="MSArtboardGroup" transform="translate(-820.000000, -424.000000)" fill="#656461">
            <path d="M827.87,424.5 C823.799552,424.5 820.5,427.8 820.5,431.871 C820.5,435.942 823.799552,439.242 827.87,439.242 C831.940448,439.242 835.24,435.942 835.24,431.871 C835.24,427.8 831.940448,424.5 827.87,424.5 L827.87,424.5 Z M828.739882,435.999 L827.083107,435.999 L827.083107,434.397 L828.739882,434.397 L828.739882,435.999 L828.739882,435.999 Z M830.320667,431.33 C830.181686,431.531 829.912723,431.786 829.513777,432.096 L829.12083,432.4 C828.908859,432.566 828.765878,432.762 828.695888,432.983 C828.650894,433.123 828.626897,433.342 828.623898,433.636 L827.121102,433.636 C827.143099,433.012 827.202091,432.58 827.298077,432.342 C827.394064,432.103 827.641031,431.829 828.038977,431.519 L828.441922,431.202 C828.573904,431.102 828.68189,430.993 828.762879,430.874 C828.910859,430.671 828.984849,430.447 828.984849,430.203 C828.984849,429.923 828.90286,429.668 828.737882,429.436 C828.573904,429.206 828.274945,429.09 827.839004,429.09 C827.411062,429.09 827.108103,429.233 826.929128,429.517 C826.750152,429.803 826.661164,430.097 826.661164,430.405 L825.059381,430.405 C825.103375,429.351 825.471325,428.605 826.162232,428.165 C826.598172,427.884 827.1341,427.743 827.770013,427.743 C828.6059,427.743 829.300806,427.942 829.851731,428.341 C830.404656,428.74 830.681618,429.332 830.681618,430.116 C830.680618,430.597 830.560635,431.001 830.320667,431.33 L830.320667,431.33 Z" id="Shape" sketch:type="MSShapeGroup"></path>
        </g>
    </g>
</svg>