<?xml version="1.0" encoding="UTF-8" standalone="no"?>
<svg width="16px" height="16px" viewBox="0 0 16 16" version="1.1" xmlns="http://www.w3.org/2000/svg" xmlns:xlink="http://www.w3.org/1999/xlink" xmlns:sketch="http://www.bohemiancoding.com/sketch/ns">
    <!-- Generator: Sketch 3.4.2 (15857) - http://www.bohemiancoding.com/sketch -->
    <title>italic</title>
    <desc>Created with Sketch.</desc>
    <defs></defs>
    <g id="Page-1" stroke="none" stroke-width="1" fill="none" fill-rule="evenodd" sketch:type="MSPage">
        <g id="italic" sketch:type="MSLayerGroup" transform="translate(5.000000, 0.000000)" fill="#000000">
            <g id="Layer_1" sketch:type="MSShapeGroup">
                <path d="M3.29365854,7.36390244 C3.41853659,7.08292683 3.41853659,6.88390244 3.24292683,6.88390244 C3.06341463,6.88390244 2.40390244,7.18829268 1.1395122,8.2302439 C0.909268293,8.20682927 0.757073171,8 0.811707317,7.79707317 C2.20878049,6.19707317 4.16,5.2604878 4.99512195,5.2604878 C5.17463415,5.2604878 5.2995122,5.41268293 5.40097561,5.51414634 C5.55317073,5.66634146 5.55317073,5.89268293 5.24878049,6.6302439 L2.23219512,13.8341463 C2.13073171,14.0878049 2.10341463,14.3921951 2.3102439,14.3921951 C2.7395122,14.3921951 4.08585366,13.5063415 4.94829268,12.515122 C5.20195122,12.542439 5.33073171,12.7180488 5.33073171,12.9482927 C4.94829268,13.6819512 2.33756098,15.9687805 0.589268293,15.9687805 C0.460487805,15.9687805 0.308292683,15.8907317 0.183414634,15.7385366 C0.0312195122,15.5590244 -0.0468292683,15.3326829 0.0819512195,15.0556098 L3.29365854,7.36390244 L3.29365854,7.36390244 Z M6.31414634,1.00292683 C6.31414634,1.78731707 5.75609756,2.57560976 4.99512195,2.57560976 C4.33560976,2.57560976 4.10926829,2.06829268 4.10926829,1.63902439 C4.10926829,1.08097561 4.46439024,0.0390243902 5.45560976,0.0390243902 C6.03317073,0.0351219512 6.31414634,0.444878049 6.31414634,1.00292683 L6.31414634,1.00292683 Z" id="Shape"></path>
            </g>
        </g>
    </g>
</svg>