<?xml version="1.0" encoding="UTF-8" standalone="no"?>
<svg width="17px" height="16px" viewBox="0 0 17 16" version="1.1" xmlns="http://www.w3.org/2000/svg" xmlns:xlink="http://www.w3.org/1999/xlink" xmlns:sketch="http://www.bohemiancoding.com/sketch/ns">
    <!-- Generator: Sketch 3.4.2 (15857) - http://www.bohemiancoding.com/sketch -->
    <title>link</title>
    <desc>Created with Sketch.</desc>
    <defs></defs>
    <g id="Page-1" stroke="none" stroke-width="1" fill="none" fill-rule="evenodd" sketch:type="MSPage">
        <g id="link" sketch:type="MSLayerGroup" transform="translate(0.321951, 0.000000)" fill="#000000">
            <g id="Layer_1" sketch:type="MSShapeGroup">
                <g id="UI">
                    <g id="Icons">
                        <g id="icons">
                            <path d="M0.197429306,12.5608247 C-0.0164524422,11.7649485 -0.0164524422,10.9731959 0.197429306,10.1814433 C0.398971722,9.38969072 0.797943445,8.70103093 1.38200514,8.11134021 L3.75115681,5.75257732 C4.33521851,5.16701031 5.02210797,4.76701031 5.8159383,4.56494845 C6.59742931,4.35051546 7.38303342,4.35051546 8.16452442,4.56494845 C8.95835476,4.76701031 9.64524422,5.16701031 10.2293059,5.75257732 C10.4843188,6.00412371 10.6077121,6.30103093 10.6077121,6.65154639 C10.6077121,6.99381443 10.4843188,7.29072165 10.2293059,7.53402062 C9.9907455,7.78556701 9.69460154,7.90515464 9.34910026,7.91340206 C8.99948586,7.90927835 8.7033419,7.78556701 8.45244216,7.53402062 C8.04935733,7.12989691 7.55989717,6.92371134 6.97994859,6.91958763 C6.41233933,6.91958763 5.92699229,7.1257732 5.52802057,7.53402062 L3.17532134,9.89690722 C2.77634961,10.3134021 2.57892031,10.8041237 2.58303342,11.3731959 C2.57892031,11.9463918 2.77634961,12.4371134 3.17532134,12.8494845 C3.58251928,13.2453608 4.07197943,13.443299 4.62724936,13.443299 C5.20308483,13.443299 5.68843188,13.2412371 6.09974293,12.8494845 L6.58508997,12.3463918 C7.51053985,12.8041237 8.49357326,13.0185567 9.52596401,12.9938144 L7.89305913,14.6309278 C7.2966581,15.2164948 6.60565553,15.6164948 5.81182519,15.8185567 C5.03033419,16.0329897 4.24061697,16.0329897 3.46323907,15.8185567 C2.66529563,15.6164948 1.97840617,15.2164948 1.38200514,14.6309278 C0.797943445,14.0371134 0.398971722,13.3484536 0.197429306,12.5608247 L0.197429306,12.5608247 L0.197429306,12.5608247 L0.197429306,12.5608247 Z M5.40874036,9.33195876 C5.40874036,8.9814433 5.53624679,8.68453608 5.78714653,8.43298969 C6.03393316,8.19381443 6.33007712,8.07010309 6.68380463,8.0742268 C7.0251928,8.0742268 7.32133676,8.19381443 7.56401028,8.43298969 C7.96298201,8.84948454 8.44832905,9.0556701 9.0159383,9.06391753 C9.59177378,9.0556701 10.0812339,8.84948454 10.4884319,8.43298969 L12.8575835,6.0742268 C13.2565553,5.66597938 13.4622108,5.17525773 13.4663239,4.59793814 C13.4622108,4.0371134 13.2565553,3.55051546 12.8575835,3.15876289 C12.4544987,2.74226804 11.9691517,2.54020619 11.4056555,2.54845361 C10.8257069,2.54020619 10.3321337,2.74639175 9.91670951,3.15876289 L9.43136247,3.62886598 C8.51002571,3.19175258 7.5311054,2.9814433 6.50694087,2.99793814 L8.13984576,1.36082474 C8.72802057,0.771134021 9.41491003,0.375257732 10.2046272,0.173195876 C10.9943445,-0.0412371134 11.7840617,-0.0412371134 12.5737789,0.173195876 C13.359383,0.375257732 14.0462725,0.771134021 14.6385604,1.36082474 C15.2226221,1.94639175 15.6215938,2.63917526 15.8231362,3.43092784 C16.037018,4.2185567 16.037018,5.01030928 15.8231362,5.80618557 C15.6215938,6.58969072 15.2226221,7.27835052 14.6385604,7.87628866 L12.2694087,10.2185567 C11.685347,10.8164948 10.9943445,11.2164948 10.2046272,11.4268041 C9.41902314,11.6412371 8.62930591,11.6412371 7.85604113,11.4268041 C7.0622108,11.2206186 6.37532134,10.8206186 5.79125964,10.2185567 C5.53624679,9.97525773 5.40874036,9.67835052 5.40874036,9.33195876 L5.40874036,9.33195876 L5.40874036,9.33195876 L5.40874036,9.33195876 Z" id="link"></path>
                        </g>
                    </g>
                </g>
            </g>
        </g>
    </g>
</svg>