<?xml version="1.0" encoding="UTF-8" standalone="no"?>
<svg width="20px" height="20px" viewBox="0 0 20 20" version="1.1" xmlns="http://www.w3.org/2000/svg" xmlns:xlink="http://www.w3.org/1999/xlink" xmlns:sketch="http://www.bohemiancoding.com/sketch/ns">
    <!-- Generator: Sketch 3.4.2 (15855) - http://www.bohemiancoding.com/sketch -->
    <title>clock</title>
    <desc>Created with Sketch.</desc>
    <defs></defs>
    <g id="UI-guide-v2" stroke="none" stroke-width="1" fill="none" fill-rule="evenodd" sketch:type="MSPage">
        <g id="ui-06-icons" sketch:type="MSArtboardGroup" transform="translate(-585.000000, -425.000000)" fill="#656461">
            <path d="M588.528133,428.556305 C587.707848,429.385305 587.119782,430.361905 586.764727,431.400105 L586.713496,431.451905 C585.692045,430.087305 585.762859,428.170305 586.954815,426.965105 C588.146771,425.760505 590.041716,425.688505 591.392309,426.721305 L591.341276,426.772905 C590.313298,427.132505 589.348419,427.726905 588.528133,428.556305 L588.528133,428.556305 Z M602.84743,426.965105 C601.655474,425.760505 599.760529,425.688505 598.409936,426.721305 L598.460968,426.772905 C599.488946,427.132705 600.453826,427.727105 601.274111,428.556505 C602.094397,429.385505 602.682463,430.362105 603.037518,431.400305 L603.088551,431.451905 C604.110199,430.087305 604.039386,428.170305 602.84743,426.965105 L602.84743,426.965105 Z M597.624067,436.243505 L596.01376,435.429505 L596.01376,432.749905 C596.01376,432.128705 595.515496,431.624905 594.901122,431.624905 C594.286749,431.624905 593.788485,432.128705 593.788485,432.749905 L593.788485,436.124905 C593.788485,436.180305 593.812023,436.227905 593.819738,436.281105 C593.831408,436.362705 593.838529,436.443105 593.867606,436.520105 C593.892727,436.587305 593.932881,436.643105 593.969672,436.703505 C594.00765,436.766105 594.040089,436.829505 594.089936,436.883905 C594.143738,436.942705 594.210001,436.983705 594.274881,437.029905 C594.319979,437.061905 594.352617,437.105705 594.403452,437.131305 L596.628727,438.256305 C596.788353,438.337105 596.958463,438.374905 597.12521,438.374905 C597.533672,438.374905 597.926507,438.147505 598.12154,437.753105 C598.396683,437.197105 598.17376,436.521505 597.624067,436.243505 L597.624067,436.243505 Z M602.363606,442.079505 C602.798177,442.518905 602.798177,443.230905 602.363606,443.670305 C602.146419,443.890105 601.861584,443.999905 601.576946,443.999905 C601.292309,443.999905 601.007672,443.890105 600.790287,443.670305 L599.67765,442.545305 C599.372837,442.237105 599.294705,441.797505 599.417342,441.409305 C598.142705,442.329705 596.586397,442.877105 594.900925,442.877105 C593.215848,442.877105 591.659936,442.329905 590.3851,441.409905 C590.50754,441.797905 590.42921,442.237305 590.124595,442.545305 L589.011957,443.670305 C588.794573,443.890105 588.509936,443.999905 588.225298,443.999905 C587.940661,443.999905 587.656023,443.890105 587.438639,443.670305 C587.004067,443.230905 587.004067,442.518905 587.438639,442.079505 L588.551276,440.954505 C588.806837,440.696105 589.152595,440.608505 589.484903,440.653705 C588.023936,439.222105 587.112463,437.221105 587.112463,435.002105 C587.112463,431.165305 589.826903,427.974305 593.417804,427.273705 L593.417804,426.751905 C593.417804,426.337705 593.749122,426.002105 594.158771,426.002105 L595.643078,426.002105 C596.052727,426.002105 596.384045,426.337705 596.384045,426.751905 L596.384045,427.273705 C599.974946,427.974305 602.689386,431.165505 602.689386,435.002105 C602.689386,437.221105 601.777716,439.222505 600.316946,440.654105 C600.649254,440.608505 600.995408,440.696105 601.251166,440.954505 L602.363606,442.079505 L602.363606,442.079505 Z M600.464111,435.002105 C600.464111,431.900505 597.968441,429.377105 594.900925,429.377105 C591.833408,429.377105 589.337738,431.900505 589.337738,435.002105 C589.337738,438.103705 591.833408,440.627105 594.900925,440.627105 C597.968441,440.627105 600.464111,438.103705 600.464111,435.002105 L600.464111,435.002105 Z" id="icon-clock" sketch:type="MSShapeGroup"></path>
        </g>
    </g>
</svg>