<?xml version="1.0" encoding="UTF-8" standalone="no"?>
<svg width="16px" height="16px" viewBox="0 0 16 16" version="1.1" xmlns="http://www.w3.org/2000/svg" xmlns:xlink="http://www.w3.org/1999/xlink" xmlns:sketch="http://www.bohemiancoding.com/sketch/ns">
    <!-- Generator: Sketch 3.4.2 (15857) - http://www.bohemiancoding.com/sketch -->
    <title>search</title>
    <desc>Created with Sketch.</desc>
    <defs></defs>
    <g id="Page-1" stroke="none" stroke-width="1" fill="none" fill-rule="evenodd" sketch:type="MSPage">
        <g id="search" sketch:type="MSLayerGroup" fill="#000000">
            <g id="Layer_1" sketch:type="MSShapeGroup">
                <path d="M15.9706422,14.7962963 C15.9706422,15.1555556 15.853211,15.3962963 15.6146789,15.637037 C15.3761468,15.8777778 15.1376147,15.9962963 14.7816514,15.9962963 C14.4256881,15.9962963 14.187156,15.8777778 13.9486239,15.637037 L10.612844,12.2703704 C9.42018349,13.1111111 8.23119266,13.4740741 6.8,13.4740741 C5.84587156,13.4740741 5.01284404,13.3555556 4.17981651,12.9925926 C3.34678899,12.6333333 2.63119266,12.1518519 2.03669725,11.5481481 C1.44220183,10.9444444 0.965137615,10.2259259 0.605504587,9.38518519 C0.24587156,8.54444444 0.00733944954,7.7037037 0.00733944954,6.74444444 C0.00733944954,5.78148148 0.24587156,4.94074074 0.601834862,4.1 C0.957798165,3.25925926 1.43486239,2.53703704 2.03302752,1.93703704 C2.63119266,1.33703704 3.34311927,0.855555556 4.17614679,0.492592593 C5.00917431,0.133333333 5.84220183,0.0111111111 6.79633028,0.0111111111 C7.75045872,0.0111111111 8.58348624,0.12962963 9.41651376,0.492592593 C10.2495413,0.851851852 10.9651376,1.33333333 11.559633,1.93703704 C12.1541284,2.54074074 12.6311927,3.25925926 12.9908257,4.1 C13.3504587,4.94074074 13.4678899,5.78148148 13.4678899,6.74444444 C13.4678899,8.18888889 13.1119266,9.51111111 12.2752294,10.5925926 L15.6110092,13.9592593 C15.8495413,14.1962963 15.9706422,14.437037 15.9706422,14.7962963 L15.9706422,14.7962963 Z M11.0862385,6.74444444 C11.0862385,5.54074074 10.6091743,4.58148148 9.77614679,3.73703704 C8.94311927,2.8962963 7.98899083,2.41481481 6.79633028,2.41481481 C5.60366972,2.41481481 4.65321101,2.8962963 3.69908257,3.73703704 C2.86605505,4.57777778 2.50642202,5.54074074 2.50642202,6.74444444 C2.50642202,7.94814815 2.98348624,8.90740741 3.81651376,9.75185185 C4.64954128,10.5962963 5.72477064,11.0703704 6.79633028,11.0703704 C7.86788991,11.0703704 8.93944954,10.5888889 9.77614679,9.74814815 C10.6091743,9.02592593 11.0862385,7.94444444 11.0862385,6.74444444 L11.0862385,6.74444444 Z" id="Shape"></path>
            </g>
        </g>
    </g>
</svg>