<?xml version="1.0" encoding="UTF-8" standalone="no"?>
<svg width="16px" height="16px" viewBox="0 0 16 16" version="1.1" xmlns="http://www.w3.org/2000/svg" xmlns:xlink="http://www.w3.org/1999/xlink" xmlns:sketch="http://www.bohemiancoding.com/sketch/ns">
    <!-- Generator: Sketch 3.4.2 (15855) - http://www.bohemiancoding.com/sketch -->
    <title>time</title>
    <desc>Created with Sketch.</desc>
    <defs></defs>
    <g id="UI-guide-v2" stroke="none" stroke-width="1" fill="none" fill-rule="evenodd" sketch:type="MSPage">
        <g id="ui-06-icons" sketch:type="MSArtboardGroup" transform="translate(-423.000000, -182.000000)">
            <g id="time" sketch:type="MSLayerGroup" transform="translate(424.000000, 182.000000)">
                <path d="M7.5,14.5 C11.3659932,14.5 14.5,11.3659932 14.5,7.5 C14.5,3.63400675 11.3659932,0.5 7.5,0.5 C3.63400675,0.5 0.5,3.63400675 0.5,7.5 C0.5,11.3659932 3.63400675,14.5 7.5,14.5 M7.5,13.5 C4.1862915,13.5 1.5,10.8137085 1.5,7.5 C1.5,4.1862915 4.1862915,1.5 7.5,1.5 C10.8137085,1.5 13.5,4.1862915 13.5,7.5 C13.5,10.8137085 10.8137085,13.5 7.5,13.5" id="Shape" fill="#3D3F40" sketch:type="MSShapeGroup"></path>
                <path d="M8,3 L7,3 L7,9 L10,9 L10,8 L8,8 L8,3 Z" id="Fill-2" fill="#656461" sketch:type="MSShapeGroup"></path>
            </g>
        </g>
    </g>
</svg>