<?xml version="1.0" encoding="UTF-8" standalone="no"?>
<svg width="16px" height="16px" viewBox="0 0 16 16" version="1.1" xmlns="http://www.w3.org/2000/svg" xmlns:xlink="http://www.w3.org/1999/xlink" xmlns:sketch="http://www.bohemiancoding.com/sketch/ns">
    <!-- Generator: Sketch 3.4.2 (15857) - http://www.bohemiancoding.com/sketch -->
    <title>delete</title>
    <desc>Created with Sketch.</desc>
    <defs></defs>
    <g id="Page-1" stroke="none" stroke-width="1" fill="none" fill-rule="evenodd" sketch:type="MSPage">
        <path d="M5.75,0 C5.341,0 5,0.341 5,0.75 L5,2 L2,2 C0.895,2 0,2.895 0,4 L15,4 C15,2.895 14.105,2 13,2 L10,2 L10,0.75 C10,0.341 9.659,0 9.25,0 L5.75,0 L5.75,0 Z M6,1 L9,1 L9,2 L6,2 L6,1 L6,1 Z M2,5 L2,15.5 C2,15.776 2.224,16 2.5,16 L12.5,16 C12.776,16 13,15.776 13,15.5 L13,5 L11,5 L11,13.5 C11,13.776 10.776,14 10.5,14 C10.224,14 10,13.776 10,13.5 L10,5 L8,5 L8,13.5 C8,13.776 7.776,14 7.5,14 C7.224,14 7,13.776 7,13.5 L7,5 L5,5 L5,13.5 C5,13.776 4.776,14 4.5,14 C4.224,14 4,13.776 4,13.5 L4,5 L2,5 L2,5 Z" fill="#000000" sketch:type="MSShapeGroup"></path>
    </g>
</svg>