<?xml version="1.0" encoding="UTF-8" standalone="no"?>
<svg width="20px" height="20px" viewBox="0 0 20 20" version="1.1" xmlns="http://www.w3.org/2000/svg" xmlns:xlink="http://www.w3.org/1999/xlink" xmlns:sketch="http://www.bohemiancoding.com/sketch/ns">
    <!-- Generator: Sketch 3.4.2 (15855) - http://www.bohemiancoding.com/sketch -->
    <title>upload</title>
    <desc>Created with Sketch.</desc>
    <defs></defs>
    <g id="UI-guide-v2" stroke="none" stroke-width="1" fill="none" fill-rule="evenodd" sketch:type="MSPage">
        <g id="ui-06-icons" sketch:type="MSArtboardGroup" transform="translate(-582.000000, -517.000000)" fill="#656461">
            <path d="M594.565217,527.3125 L592.913043,527.3125 L592.913043,530.5625 C593.011449,530.385227 592.887147,530.5625 592.913043,530.5625 L591.26087,530.5625 C591.39553,530.5625 591.209077,530.444318 591.26087,530.5625 L591.26087,527.3125 L589.608696,527.3125 C589.841761,527.548864 589.717459,527.489773 589.608696,527.3125 C589.593158,527.3125 589.593158,527.194318 589.608696,527.3125 L592.086957,524.0625 C591.830585,524.121591 591.892735,524.0625 592.086957,524.0625 C592.141338,524.0625 592.327791,524.121591 592.086957,524.0625 L594.565217,527.3125 C594.565217,527.135227 594.565217,527.194318 594.565217,527.3125 C594.565217,527.430682 594.440916,527.548864 594.565217,527.3125 L594.565217,527.3125 Z M597.869565,524.875 C597.949509,524.574074 597.773633,524.574074 597.869565,524.875 L597.869565,524.875 C597.53913,524.513889 597.363254,524.513889 597.043478,524.875 C597.187377,524.513889 597.011501,524.513889 597.043478,524.875 C596.425245,522.949074 595.018233,521.805556 593.73913,521.625 C593.200842,521.805556 593.024965,521.805556 592.913043,521.625 C592.028331,520.722222 590.738569,520 589.608696,520 C586.92791,520 584.934642,522.046296 584.652174,524.875 C584.934642,524.694444 584.934642,524.875 584.652174,524.875 C583.762132,525.717593 583,527.041667 583,528.9375 C583,531.074074 584.817391,533 587.130435,533 L597.043478,533 C597.011501,533 597.187377,533 597.043478,533 C599.473773,533 601.173913,531.074074 601.173913,528.9375 C601.173913,526.62037 599.7669,524.935185 597.869565,524.875 L597.869565,524.875 Z" id="Imported-Layers-Copy" sketch:type="MSShapeGroup"></path>
        </g>
    </g>
</svg>